<svg height="423pt" viewBox="0 -1 423.25333 423" width="423pt" xmlns="http://www.w3.org/2000/svg"><path d="m245.761719 177.621094h-177.496094c-7.546875 0-13.652344-6.105469-13.652344-13.652344s6.105469-13.652344 13.652344-13.652344h177.496094c7.546875 0 13.652343 6.105469 13.652343 13.652344s-6.105468 13.652344-13.652343 13.652344zm0 0" fill="#11ccd1"/><path d="m68.265625 95.703125h109.226563c7.546874 0 13.65625-6.109375 13.65625-13.65625s-6.109376-13.652344-13.65625-13.652344h-109.226563c-7.546875 0-13.652344 6.105469-13.652344 13.652344s6.105469 13.65625 13.652344 13.65625zm0 0"/><path d="m68.265625 232.234375h177.496094c7.546875 0 13.652343-6.105469 13.652343-13.652344s-6.105468-13.652343-13.652343-13.652343h-177.496094c-7.546875 0-13.652344 6.105468-13.652344 13.652343s6.105469 13.652344 13.652344 13.652344zm0 0"/><path d="m393.371094 246.449219c-19.265625-19.269531-44.878906-29.882813-72.117188-29.882813-2.429687 0-4.828125.183594-7.226562.351563v-80.257813c0-7.546875-6.105469-13.652344-13.652344-13.652344s-13.65625 6.105469-13.65625 13.652344v86.003906c-13.957031 5.015626-26.792969 12.976563-37.585938 23.773438-7.851562 7.851562-14.292968 16.824219-19.199218 26.757812h-133.785156c-18.828126 0-34.136719 15.308594-34.136719 34.136719 0 15.195313 10.039062 27.945313 23.789062 32.355469v10.335938c0 7.546874 6.105469 13.652343 13.652344 13.652343s13.65625-6.105469 13.65625-13.652343v-8.558594h20.972656v14.894531c0 7.546875 6.105469 13.652344 13.652344 13.652344s13.652344-6.105469 13.652344-13.652344v-14.894531h20.960937v8.558594c0 7.546874 6.105469 13.652343 13.652344 13.652343s13.652344-6.105469 13.652344-13.652343v-8.558594h12.242187c3.449219 14.992187 10.421875 28.96875 20.0625 40.957031h-214.648437v-354.984375h191.144531v54.613281c0 7.546875 6.105469 13.652344 13.652344 13.652344h68.269531c5.519531 0 10.503906-3.320313 12.613281-8.425781 2.117188-5.109375.945313-10.976563-2.960937-14.882813l-68.25-68.25c-.03125-.03125-.070313-.042969-.097656-.074219-1.132813-1.125-2.453126-1.945312-3.847657-2.597656-.398437-.183594-.8125-.292968-1.230469-.4375-1.203124-.425781-2.429687-.675781-3.703124-.75-.277344-.015625-.511719-.160156-.789063-.160156h-218.457031c-7.546875 0-13.652344 6.109375-13.652344 13.65625v382.292969c0 7.546875 6.105469 13.652343 13.652344 13.652343h261.9375c14.007812 7.035157 29.527344 10.839844 45.664062 10.839844 27.253906 0 52.867188-10.613281 72.117188-29.878906 19.269531-19.25 29.882812-44.867188 29.882812-72.117188 0-27.242187-10.613281-52.855468-29.882812-72.121093zm-147.609375-178.054688v-21.652343l21.652343 21.65625h-21.652343zm128.304687 302.988281c-14.105468 14.105469-32.867187 21.878907-52.8125 21.878907-19.945312 0-38.707031-7.773438-52.8125-21.878907-12.226562-12.214843-19.640625-27.773437-21.4375-44.988281-.722656-6.960937-6.585937-12.238281-13.574218-12.238281h-35.375c-.699219-.109375-1.324219-.414062-2.050782-.414062-.730468 0-1.355468.304687-2.054687.414062h-92.445313c-.695312-.109375-1.324218-.414062-2.050781-.414062-.730469 0-1.355469.304687-2.050781.414062h-1.257813c-3.757812 0-6.824219-3.066406-6.824219-6.828125 0-3.757813 3.066407-6.828125 6.824219-6.828125h142.691407c5.65625 0 10.722656-3.476562 12.75-8.746094 3.785156-9.863281 9.464843-18.613281 16.851562-26 14.109375-14.105468 32.867188-21.878906 52.8125-21.878906s38.707031 7.773438 52.8125 21.878906c14.105469 14.105469 21.882812 32.867188 21.882812 52.816406 0 19.945313-7.773437 38.707032-21.878906 52.8125zm0 0"/><path d="m321.785156 267.300781c-10.347656 10.351563-10.347656 27.128907 0 37.476563 10.351563 10.351562 27.128906 10.351562 37.476563 0 10.347656-10.347656 10.347656-27.125 0-37.476563-10.347657-10.34375-27.125-10.34375-37.476563 0zm0 0"/></svg>