<svg height="436pt" viewBox="-41 0 436 436.90667" width="436pt" xmlns="http://www.w3.org/2000/svg"><path d="m355.441406 177.492188c0-97.867188-79.628906-177.492188-177.496094-177.492188-97.867187 0-177.492187 79.625-177.492187 177.492188 0 83.75 58.382813 153.96875 136.535156 172.53125v18.617187c-7.546875 0-13.65625 6.105469-13.65625 13.652344v40.960937c0 7.546875 6.109375 13.652344 13.65625 13.652344s13.652344-6.105469 13.652344-13.652344v-27.308594h54.613281v27.308594c0 7.546875 6.105469 13.652344 13.652344 13.652344s13.652344-6.105469 13.652344-13.652344v-40.960937c0-7.546875-6.105469-13.652344-13.652344-13.652344v-18.617187c78.152344-18.5625 136.535156-88.78125 136.535156-172.53125zm-327.679687 0c0-82.8125 67.371093-150.183594 150.183593-150.183594s150.1875 67.371094 150.1875 150.183594-67.375 150.1875-150.1875 150.1875-150.183593-67.375-150.183593-150.1875zm163.839843 191.148437h-27.308593v-14.34375c4.519531.34375 9.046875.691406 13.652343.691406 4.609376 0 9.132813-.347656 13.65625-.691406zm0 0"/><path d="m177.945312 54.613281c-67.757812 0-122.878906 55.121094-122.878906 122.878907 0 19.429687 4.414063 38.015624 13.109375 55.269531 2.316407 4.597656 7.023438 7.503906 12.183594 7.503906h70.28125c4.773437 0 9.199219-2.492187 11.679687-6.574219l39.316407-64.847656 4.324219 12.96875c1.90625 5.722656 7.226562 9.335938 12.949218 9.335938 1.425782 0 2.878906-.230469 4.316406-.707032 7.148438-2.375 11.015626-10.109375 8.628907-17.269531l-13.652344-40.957031c-.386719-1.160156-.992187-2.179688-1.644531-3.164063-.117188-.183593-.164063-.394531-.296875-.574219-.972657-1.332031-2.210938-2.40625-3.578125-3.304687-.136719-.089844-.210938-.234375-.347656-.320313-.304688-.179687-.648438-.1875-.957032-.339843-1.046875-.535157-2.132812-.933594-3.304687-1.183594-.558594-.117187-1.085938-.214844-1.648438-.261719-.398437-.035156-.765625-.1875-1.171875-.1875h-40.960937c-7.546875 0-13.652344 6.109375-13.652344 13.65625s6.105469 13.652344 13.652344 13.652344h16.710937l-38.058594 62.773438h-53.785156c-4.507812-11.242188-6.785156-23.132813-6.785156-35.46875 0-52.691407 42.878906-95.570313 95.570312-95.570313 52.695313 0 95.574219 42.878906 95.574219 95.570313 0 52.695312-42.878906 95.574218-95.574219 95.574218-7.546874 0-13.652343 6.105469-13.652343 13.652344s6.105469 13.65625 13.652343 13.65625c67.761719 0 122.882813-55.121094 122.882813-122.882812 0-67.757813-55.121094-122.878907-122.882813-122.878907zm0 0" fill="#11ccd1"/></svg>