<svg height="409pt" viewBox="0 0 409 409.60171" width="409pt" xmlns="http://www.w3.org/2000/svg"><path d="m327.980469 341.332031h-7.664063c-3.308594 0-5.988281-2.679687-5.988281-5.984375v-48.628906h13.652344c7.546875 0 13.652343-6.105469 13.652343-13.652344s-6.105468-13.652344-13.652343-13.652344h-13.652344v-13.652343c0-7.546875-6.105469-13.65625-13.652344-13.65625s-13.65625 6.109375-13.65625 13.65625v13.652343h-13.652343c-7.546876 0-13.652344 6.105469-13.652344 13.652344s6.105468 13.652344 13.652344 13.652344h13.652343v48.628906c0 18.359375 14.933594 33.292969 33.296875 33.292969h7.664063c7.546875 0 13.652343-6.105469 13.652343-13.652344s-6.105468-13.65625-13.652343-13.65625zm0 0" fill="#11ccd1"/><path d="m409.902344 204.800781c0-107.941406-83.980469-196.421875-190.011719-204.050781-.90625-.078125-1.789063-.242188-2.691406-.136719-4.023438-.234375-8.015625-.613281-12.097657-.613281-4.023437 0-7.945312.375-11.910156.605469-.828125-.09375-1.632812.066406-2.46875.125-106.222656 7.429687-190.421875 95.988281-190.421875 204.070312 0 60.230469 26.289063 114.300781 67.8125 151.804688.140625.179687.179688.40625.335938.582031.445312.503906 1.054687.714844 1.554687 1.136719 32.5 28.636719 74.039063 47.097656 119.808594 50.503906.621094.085937 1.222656.320313 1.847656.320313.292969 0 .5625-.167969.855469-.183594 4.183594.257812 8.335937.636718 12.585937.636718 3.050782 0 5.71875-1.1875 7.992188-2.875 4.296875 1.839844 9.015625 2.875 13.980469 2.875h147.199219c19.640624 0 35.628906-15.984374 35.628906-35.625v-147.203124c0-4.960938-1.035156-9.683594-2.878906-13.976563 1.691406-2.277344 2.878906-4.945313 2.878906-7.996094zm-27.953125-12.773437c-2.480469-.546875-5.035157-.878906-7.675781-.878906h-60.410157c-1.359375-29.160157-6.980469-57.386719-16.441406-83.664063 13.085937-6.609375 25.558594-14.496094 37.019531-23.847656 27.03125 28.835937 44.507813 66.597656 47.507813 108.390625zm-124.382813-156.792969c20.695313 6.417969 39.683594 16.648437 56.390625 29.679687-8.511719 6.617188-17.578125 12.394532-27.082031 17.324219-8.144531-16.96875-17.953125-32.71875-29.308594-47.003906zm4.226563 57.71875c-13.886719 4.683594-28.328125 7.699219-43.039063 8.839844v-68.796875c17.4375 16.789062 31.929688 37.113281 43.039063 59.957031zm-70.34375-59.738281v68.550781c-14.679688-1.128906-29.027344-4.140625-42.832031-8.777344 11.0625-22.757812 25.484374-43.015625 42.832031-59.773437zm-67.957031 49.144531c-9.550782-4.953125-18.65625-10.785156-27.230469-17.460937 16.78125-13.082032 35.867187-23.328126 56.664062-29.738282-11.410156 14.339844-21.261719 30.15625-29.433593 47.199219zm67.957031 46.714844v62.074219h-67.585938c1.300781-25.425782 6.132813-50.003907 14.203125-72.90625 17.144532 5.941406 35.066406 9.609374 53.382813 10.832031zm1.082031 89.378906c-.648438 2.679687-1.082031 5.441406-1.082031 8.320313v60.566406c-17.527344 1.167968-34.675781 4.601562-51.148438 10.101562-9.398437-24.597656-15.019531-51.296875-16.4375-78.988281zm-1.082031 96.191406v59.328125c0 .917969.203125 1.78125.269531 2.679688-15.96875-15.367188-29.511719-33.644532-40.210938-54.175782 12.917969-4.09375 26.285157-6.777343 39.941407-7.832031zm-38.53125 59.792969c-18.996094-5.855469-36.535157-14.949219-52.234375-26.425781 8.070312-5.878907 16.609375-10.992188 25.476562-15.402344 7.621094 15.015625 16.558594 29.011719 26.757813 41.828125zm65.835937-245.335938c18.339844-1.234374 36.371094-4.871093 53.605469-10.867187 8.070313 22.90625 12.90625 47.488281 14.207031 72.914063h-59.492187c-2.875 0-5.636719.4375-8.316407 1.082031v-63.128907zm-142.882812-45.585937c11.539062 9.40625 23.933594 17.53125 37.066406 24.15625-9.421875 26.226563-15.015625 54.386719-16.371094 83.476563h-68.269531c3.183594-41.507813 20.671875-78.984376 47.574219-107.632813zm-47.574219 134.9375h68.269531c1.453125 31.199219 7.789063 61.34375 18.476563 89.148437-12.5625 6.152344-24.4375 13.734376-35.59375 22.417969-28.992188-29.089843-47.824219-68.1875-51.152344-111.566406zm354.296875 155.519531c0 4.589844-3.734375 8.320313-8.320312 8.320313h-147.199219c-4.585938 0-8.320313-3.734375-8.320313-8.320313v-147.199218c0-4.585938 3.734375-8.320313 8.320313-8.320313h147.199219c4.589843 0 8.320312 3.734375 8.320312 8.320313zm0 0"/></svg>